<?xml version="1.0" encoding="utf-8"?>
<!-- Generator: Adobe Illustrator 19.0.0, SVG Export Plug-In . SVG Version: 6.00 Build 0)  -->
<svg version="1.1" id="Layer_1" xmlns="http://www.w3.org/2000/svg" xmlns:xlink="http://www.w3.org/1999/xlink" x="0px" y="0px"
	 viewBox="69.5 271 210.9 72" style="enable-background:new 69.5 271 210.9 72;" xml:space="preserve">
<style type="text/css">
	.st0{fill:#353535;}
	.st1{fill:#D69129;}
</style>
<g id="XMLID_227_">
	<path id="XMLID_228_" class="st0" d="M136.2,307.1l10.1-9.2h2.9v24.8h-6.5v-12.7l-6.5,5.9l-6.5-5.9v12.7h-6.5v-24.8h2.9
		L136.2,307.1z"/>
</g>
<g id="XMLID_223_">
	<path id="XMLID_224_" class="st0" d="M152.5,322.7l11.6-24.8h2.9l11.7,24.8h-6.5l-1.5-3.2h-10.2l-1.5,3.2H152.5z M163.1,313.9h5.1
		l-2.5-5.5L163.1,313.9z"/>
</g>
<g id="XMLID_220_">
	<path id="XMLID_221_" class="st0" d="M200.3,322.7l-11.7-11.7v11.7H182v-24.8h2.6l11.7,11.7v-11.7h6.5v24.8H200.3z"/>
</g>
<g id="XMLID_216_">
	<path id="XMLID_217_" class="st0" d="M218.1,297.9c6.8,0,12.4,5.6,12.4,12.4s-5.6,12.4-12.4,12.4s-12.4-5.5-12.4-12.4
		S211.3,297.9,218.1,297.9z M218.1,304.3c-3.2,0-5.9,2.6-5.9,5.9c0,3.2,2.6,5.9,5.9,5.9c3.3,0,5.9-2.7,5.9-5.9
		C224.1,307,221.4,304.3,218.1,304.3z"/>
</g>
<g id="XMLID_213_">
	<path id="XMLID_214_" class="st0" d="M235.1,297.9h6.5v18.3h8.9v6.5h-15.4V297.9z"/>
</g>
<g id="XMLID_209_">
	<path id="XMLID_210_" class="st0" d="M266.1,297.9c6.8,0,12.4,5.6,12.4,12.4s-5.6,12.4-12.4,12.4s-12.4-5.5-12.4-12.4
		S259.2,297.9,266.1,297.9z M266.1,304.3c-3.2,0-5.9,2.6-5.9,5.9c0,3.2,2.6,5.9,5.9,5.9c3.3,0,5.9-2.7,5.9-5.9
		C272,307,269.3,304.3,266.1,304.3z"/>
</g>
<g id="XMLID_197_">
	<path id="XMLID_207_" class="st0" d="M123.9,279.4h8.5v3h-4.9v2.2h4.3v3h-4.3v2.5h4.9v2.9h-8.5V279.4z"/>
	<path id="XMLID_205_" class="st0" d="M135,279.4h3.6v10.1h4.9v3.6H135V279.4z"/>
	<path id="XMLID_203_" class="st0" d="M154,279.4h10.8v3.6h-3.6v10.1h-3.6V283H154V279.4z"/>
	<path id="XMLID_201_" class="st0" d="M167.2,279.4h3.6v13.7h-3.6V279.4z"/>
	<path id="XMLID_198_" class="st0" d="M180.1,279.4c3.8,0,6.8,3.1,6.8,6.9c0,3.8-3.1,6.8-6.8,6.8s-6.8-3-6.8-6.8
		C173.3,282.5,176.3,279.4,180.1,279.4z M180.1,283c-1.8,0-3.2,1.5-3.2,3.3c0,1.8,1.5,3.3,3.2,3.3c1.8,0,3.3-1.5,3.3-3.3
		C183.3,284.4,181.9,283,180.1,283z"/>
</g>
<g id="XMLID_193_">
	<path id="XMLID_194_" class="st0" d="M136.2,307.1l10.1-9.2h2.9v24.8h-6.5v-12.7l-6.5,5.9l-6.5-5.9v12.7h-6.5v-24.8h2.9
		L136.2,307.1z"/>
</g>
<g id="XMLID_189_">
	<path id="XMLID_190_" class="st0" d="M152.5,322.7l11.6-24.8h2.9l11.7,24.8h-6.5l-1.5-3.2h-10.2l-1.5,3.2H152.5z M163.1,313.9h5.1
		l-2.5-5.5L163.1,313.9z"/>
</g>
<g id="XMLID_186_">
	<path id="XMLID_187_" class="st0" d="M200.3,322.7l-11.7-11.7v11.7H182v-24.8h2.6l11.7,11.7v-11.7h6.5v24.8H200.3z"/>
</g>
<g id="XMLID_182_">
	<path id="XMLID_183_" class="st0" d="M218.1,297.9c6.8,0,12.4,5.6,12.4,12.4s-5.6,12.4-12.4,12.4s-12.4-5.5-12.4-12.4
		S211.3,297.9,218.1,297.9z M218.1,304.3c-3.2,0-5.9,2.6-5.9,5.9c0,3.2,2.6,5.9,5.9,5.9c3.3,0,5.9-2.7,5.9-5.9
		C224.1,307,221.4,304.3,218.1,304.3z"/>
</g>
<g id="XMLID_179_">
	<path id="XMLID_180_" class="st0" d="M235.1,297.9h6.5v18.3h8.9v6.5h-15.4V297.9z"/>
</g>
<g id="XMLID_175_">
	<path id="XMLID_176_" class="st0" d="M266.1,297.9c6.8,0,12.4,5.6,12.4,12.4s-5.6,12.4-12.4,12.4s-12.4-5.5-12.4-12.4
		S259.2,297.9,266.1,297.9z M266.1,304.3c-3.2,0-5.9,2.6-5.9,5.9c0,3.2,2.6,5.9,5.9,5.9c3.3,0,5.9-2.7,5.9-5.9
		C272,307,269.3,304.3,266.1,304.3z"/>
</g>
<path id="XMLID_173_" class="st0" d="M123.9,279.4h8.5v3h-4.9v2.2h4.3v3h-4.3v2.5h4.9v2.9h-8.5V279.4z"/>
<path id="XMLID_171_" class="st0" d="M135,279.4h3.6v10.1h4.9v3.6H135V279.4z"/>
<path id="XMLID_169_" class="st0" d="M154,279.4h10.8v3.6h-3.6v10.1h-3.6V283H154V279.4z"/>
<path id="XMLID_167_" class="st0" d="M167.2,279.4h3.6v13.7h-3.6V279.4z"/>
<path id="XMLID_164_" class="st0" d="M180.1,279.4c3.8,0,6.8,3.1,6.8,6.9c0,3.8-3.1,6.8-6.8,6.8s-6.8-3-6.8-6.8
	C173.3,282.5,176.3,279.4,180.1,279.4z M180.1,283c-1.8,0-3.2,1.5-3.2,3.3c0,1.8,1.5,3.3,3.2,3.3c1.8,0,3.3-1.5,3.3-3.3
	C183.3,284.4,181.9,283,180.1,283z"/>
<g id="XMLID_89_">
	<g id="XMLID_100_">
		<path id="XMLID_8_" class="st1" d="M73.5,299.3c0.6-10.9,9.3-19.6,20.2-20.2v-2.2c-12.1,0.6-21.8,10.3-22.4,22.4H73.5z"/>
		<path id="XMLID_7_" class="st1" d="M73.5,301.7h-2.2c0.6,12.1,10.3,21.8,22.4,22.4v-2.2C82.8,321.2,74.1,312.5,73.5,301.7z"/>
	</g>
	<g id="XMLID_93_">
		<g id="XMLID_94_">
			<path id="XMLID_95_" class="st1" d="M83.1,286.3v5.9v0.1v22.2h6v-11.4l2.8,2.6v3.6h6v-3.5l3-2.7v11.4h6v-22.2v-0.1v-5.9H83.1z
				 M104.7,290.5h-8.7v11.9l8.7-8.1v18.4h-1.8v-14.2l-6.9,6.4v2.3h-2.1v-2.4l-6.7-6.2v14.2h-2.1v-18.5l8.7,8v-11.8h-8.7v-2.1h19.5
				V290.5z M104,292.3l-6.2,5.6v-5.6H104z M85.9,292.3h5.9v5.5L85.9,292.3z"/>
		</g>
	</g>
	<g id="XMLID_90_">
		<path id="XMLID_3_" class="st1" d="M116.3,299.3h2.2c-0.6-12.1-10.3-21.8-22.4-22.4v2.2C107,279.7,115.7,288.4,116.3,299.3z"/>
		<path id="XMLID_4_" class="st1" d="M116.3,301.7c-0.6,10.9-9.3,19.6-20.2,20.2v2.2c12.1-0.6,21.8-10.3,22.4-22.4H116.3z"/>
	</g>
</g>
</svg>
