<?xml version="1.0" encoding="utf-8"?>
<!-- Generator: Adobe Illustrator 19.0.0, SVG Export Plug-In . SVG Version: 6.00 Build 0)  -->
<svg version="1.1" id="Layer_1" xmlns="http://www.w3.org/2000/svg" xmlns:xlink="http://www.w3.org/1999/xlink" x="0px" y="0px"
	 viewBox="0 0 140 168" style="enable-background:new 0 0 140 168;" xml:space="preserve">
<style type="text/css">
	.st0{fill:#FFFFFF;}
	.st1{fill:#D69029;}
</style>
<g id="XMLID_151_">
	<g id="XMLID_196_">
		<g id="XMLID_227_">
			<path id="XMLID_228_" class="st0" d="M26.2,153.8l7-6.3h2v17.1h-4.5v-8.8l-4.5,4.1l-4.5-4.1v8.8h-4.5v-17.1h2L26.2,153.8z"/>
		</g>
		<g id="XMLID_223_">
			<path id="XMLID_224_" class="st0" d="M37.5,164.5l8-17.1h2l8.1,17.1h-4.5l-1-2.2h-7l-1,2.2H37.5z M44.8,158.5h3.5l-1.7-3.8
				L44.8,158.5z"/>
		</g>
		<g id="XMLID_220_">
			<path id="XMLID_221_" class="st0" d="M70.4,164.5l-8.1-8.1v8.1h-4.5v-17.1h1.8l8.1,8.1v-8.1h4.5v17.1H70.4z"/>
		</g>
		<g id="XMLID_216_">
			<path id="XMLID_217_" class="st0" d="M82.7,147.4c4.7,0,8.6,3.9,8.6,8.6c0,4.7-3.8,8.5-8.6,8.5s-8.5-3.8-8.5-8.5
				C74.2,151.3,78,147.4,82.7,147.4z M82.7,151.9c-2.2,0-4.1,1.8-4.1,4.1c0,2.2,1.8,4.1,4.1,4.1c2.3,0,4.1-1.8,4.1-4.1
				C86.8,153.7,85,151.9,82.7,151.9z"/>
		</g>
		<g id="XMLID_213_">
			<path id="XMLID_214_" class="st0" d="M94.4,147.4h4.5V160h6.2v4.5H94.4V147.4z"/>
		</g>
		<g id="XMLID_209_">
			<path id="XMLID_210_" class="st0" d="M115.8,147.4c4.7,0,8.6,3.9,8.6,8.6c0,4.7-3.8,8.5-8.6,8.5s-8.5-3.8-8.5-8.5
				C107.3,151.3,111.1,147.4,115.8,147.4z M115.8,151.9c-2.2,0-4.1,1.8-4.1,4.1c0,2.2,1.8,4.1,4.1,4.1c2.3,0,4.1-1.8,4.1-4.1
				C119.9,153.7,118,151.9,115.8,151.9z"/>
		</g>
		<g id="XMLID_197_">
			<path id="XMLID_207_" class="st0" d="M51.6,135.2h5.2v1.8h-3v1.4h2.6v1.8h-2.6v1.5h3v1.8h-5.2V135.2z"/>
			<path id="XMLID_205_" class="st0" d="M58.3,135.2h2.2v6.1h3v2.2h-5.2V135.2z"/>
			<path id="XMLID_203_" class="st0" d="M69.9,135.2h6.5v2.2h-2.2v6.1H72v-6.1h-2.2V135.2z"/>
			<path id="XMLID_201_" class="st0" d="M77.9,135.2h2.2v8.3h-2.2V135.2z"/>
			<path id="XMLID_198_" class="st0" d="M85.8,135.2c2.3,0,4.2,1.9,4.2,4.2c0,2.3-1.9,4.1-4.2,4.1c-2.3,0-4.1-1.9-4.1-4.1
				C81.6,137.1,83.5,135.2,85.8,135.2z M85.8,137.4c-1.1,0-2,0.9-2,2c0,1.1,0.9,2,2,2c1.1,0,2-0.9,2-2
				C87.7,138.3,86.9,137.4,85.8,137.4z"/>
		</g>
	</g>
	<g id="XMLID_162_">
		<g id="XMLID_193_">
			<path id="XMLID_194_" class="st0" d="M26.2,153.8l7-6.3h2v17.1h-4.5v-8.8l-4.5,4.1l-4.5-4.1v8.8h-4.5v-17.1h2L26.2,153.8z"/>
		</g>
		<g id="XMLID_189_">
			<path id="XMLID_190_" class="st0" d="M37.5,164.5l8-17.1h2l8.1,17.1h-4.5l-1-2.2h-7l-1,2.2H37.5z M44.8,158.5h3.5l-1.7-3.8
				L44.8,158.5z"/>
		</g>
		<g id="XMLID_186_">
			<path id="XMLID_187_" class="st0" d="M70.4,164.5l-8.1-8.1v8.1h-4.5v-17.1h1.8l8.1,8.1v-8.1h4.5v17.1H70.4z"/>
		</g>
		<g id="XMLID_182_">
			<path id="XMLID_183_" class="st0" d="M82.7,147.4c4.7,0,8.6,3.9,8.6,8.6c0,4.7-3.8,8.5-8.6,8.5s-8.5-3.8-8.5-8.5
				C74.2,151.3,78,147.4,82.7,147.4z M82.7,151.9c-2.2,0-4.1,1.8-4.1,4.1c0,2.2,1.8,4.1,4.1,4.1c2.3,0,4.1-1.8,4.1-4.1
				C86.8,153.7,85,151.9,82.7,151.9z"/>
		</g>
		<g id="XMLID_179_">
			<path id="XMLID_180_" class="st0" d="M94.4,147.4h4.5V160h6.2v4.5H94.4V147.4z"/>
		</g>
		<g id="XMLID_175_">
			<path id="XMLID_176_" class="st0" d="M115.8,147.4c4.7,0,8.6,3.9,8.6,8.6c0,4.7-3.8,8.5-8.6,8.5s-8.5-3.8-8.5-8.5
				C107.3,151.3,111.1,147.4,115.8,147.4z M115.8,151.9c-2.2,0-4.1,1.8-4.1,4.1c0,2.2,1.8,4.1,4.1,4.1c2.3,0,4.1-1.8,4.1-4.1
				C119.9,153.7,118,151.9,115.8,151.9z"/>
		</g>
		<g id="XMLID_163_">
			<path id="XMLID_173_" class="st0" d="M51.6,135.2h5.2v1.8h-3v1.4h2.6v1.8h-2.6v1.5h3v1.8h-5.2V135.2z"/>
			<path id="XMLID_171_" class="st0" d="M58.3,135.2h2.2v6.1h3v2.2h-5.2V135.2z"/>
			<path id="XMLID_169_" class="st0" d="M69.9,135.2h6.5v2.2h-2.2v6.1H72v-6.1h-2.2V135.2z"/>
			<path id="XMLID_167_" class="st0" d="M77.9,135.2h2.2v8.3h-2.2V135.2z"/>
			<path id="XMLID_164_" class="st0" d="M85.8,135.2c2.3,0,4.2,1.9,4.2,4.2c0,2.3-1.9,4.1-4.2,4.1c-2.3,0-4.1-1.9-4.1-4.1
				C81.6,137.1,83.5,135.2,85.8,135.2z M85.8,137.4c-1.1,0-2,0.9-2,2c0,1.1,0.9,2,2,2c1.1,0,2-0.9,2-2
				C87.7,138.3,86.9,137.4,85.8,137.4z"/>
		</g>
	</g>
	<g id="XMLID_157_">
		<g id="XMLID_158_">
			<path id="XMLID_159_" class="st1" d="M10.8,158.2l-1.9-1.9l1.9-1.9l1.9,1.9L10.8,158.2z M9.9,156.4l0.9,0.9l0.9-0.9l-0.9-0.9
				L9.9,156.4z"/>
		</g>
	</g>
	<g id="XMLID_152_">
		<g id="XMLID_153_">
			<path id="XMLID_154_" class="st1" d="M130.7,158.2l-1.9-1.9l1.9-1.9l1.9,1.9L130.7,158.2z M129.8,156.4l0.9,0.9l0.9-0.9l-0.9-0.9
				L129.8,156.4z"/>
		</g>
	</g>
</g>
<g id="XMLID_89_">
	<g id="XMLID_100_">
		<path id="XMLID_8_" class="st1" d="M18.7,58c1.5-26.5,22.7-47.7,49.2-49.2V3.4C38.4,4.8,14.7,28.5,13.3,58H18.7z"/>
		<path id="XMLID_7_" class="st1" d="M18.7,63.8h-5.4c1.5,29.5,25.1,53.1,54.6,54.6V113C41.4,111.5,20.1,90.3,18.7,63.8z"/>
	</g>
	<g id="XMLID_93_">
		<g id="XMLID_94_">
			<path id="XMLID_95_" class="st1" d="M41.9,26.4v14.5v0.3v54.3h14.6V67.6l6.7,6.2v8.7h14.6v-8.4l7.3-6.6v27.9h14.6V41.1v-0.3V26.4
				H41.9z M94.6,36.5H73.3v29.1l21.3-19.7v45h-4.5V56.2L73.3,71.7v5.7h-5v-6L52,56.3v34.6h-5V45.8l21.3,19.4V36.5H46.9v-5h47.7V36.5
				z M92.9,41L77.8,54.7V41H92.9z M48.9,41h14.3v13.4L48.9,41z"/>
		</g>
	</g>
	<g id="XMLID_90_">
		<path id="XMLID_3_" class="st1" d="M122.9,58h5.4c-1.5-29.5-25.1-53.1-54.6-54.6v5.4C100.2,10.2,121.4,31.5,122.9,58z"/>
		<path id="XMLID_4_" class="st1" d="M122.9,63.8c-1.5,26.5-22.7,47.7-49.2,49.2v5.4c29.5-1.5,53.1-25.1,54.6-54.6H122.9z"/>
	</g>
</g>
</svg>
